<?xml version="1.0" standalone="no"?>
<!DOCTYPE svg PUBLIC "-//W3C//DTD SVG 20010904//EN"
 "http://www.w3.org/TR/2001/REC-SVG-20010904/DTD/svg10.dtd">
<svg version="1.0" xmlns="http://www.w3.org/2000/svg"
 width="256.000000pt" height="256.000000pt" viewBox="0 0 256.000000 256.000000"
 preserveAspectRatio="xMidYMid meet">

<g transform="translate(0.000000,256.000000) scale(0.100000,-0.100000)"
fill="#000000" stroke="none">
<path d="M963 2545 c-78 -21 -130 -51 -185 -106 -103 -103 -139 -244 -103
-405 16 -75 16 -79 0 -89 -91 -53 -116 -89 -117 -163 0 -104 70 -172 178 -172
42 0 44 -1 44 -30 0 -16 -3 -30 -7 -30 -5 0 -91 27 -193 60 -101 33 -192 60
-201 60 -22 0 -247 -121 -251 -135 -2 -5 -2 -149 0 -318 l3 -308 22 3 22 3 3
283 c1 194 6 282 13 282 6 0 191 -59 410 -132 l399 -132 0 -577 0 -577 -312
104 c-172 57 -357 118 -410 135 -80 24 -98 33 -98 49 0 15 7 20 29 20 16 0 42
11 58 23 l28 24 301 -100 c166 -55 309 -97 318 -94 14 6 16 50 16 445 0 340
-3 442 -12 449 -25 20 -635 216 -651 210 -15 -6 -17 -32 -17 -267 l0 -261 -32
17 c-17 9 -57 19 -88 21 -53 5 -59 3 -91 -25 l-34 -30 -3 -145 c-4 -184 8
-213 97 -237 22 -5 27 -13 31 -56 l5 -49 445 -147 445 -148 255 0 255 0 445
148 445 147 5 49 c4 43 9 51 31 56 89 24 101 53 97 236 -3 140 -4 144 -29 170
-15 14 -42 29 -60 33 l-34 7 -2 348 c-1 191 -3 349 -5 350 -31 23 -231 126
-244 126 -9 0 -108 -29 -218 -64 -111 -35 -310 -98 -444 -141 l-242 -76 -223
73 -222 73 -3 183 -2 182 53 0 c35 0 68 8 97 23 41 20 50 31 95 124 71 145 72
146 195 148 132 2 150 -9 200 -121 19 -44 43 -93 53 -107 26 -40 87 -67 151
-67 l55 0 3 -142 3 -143 81 0 c73 0 84 3 117 28 49 37 67 75 67 140 0 44 -6
62 -29 95 -18 24 -44 46 -65 53 -41 15 -41 15 -20 106 36 153 -2 300 -104 402
-131 131 -341 159 -463 61 l-39 -31 -39 31 c-71 57 -172 73 -278 45z m-193
-765 l0 -120 -30 0 c-48 0 -97 25 -114 59 -45 86 14 180 112 181 l32 0 0 -120z
m1116 104 c60 -29 81 -102 48 -165 -17 -34 -66 -59 -114 -59 l-30 0 0 120 0
120 31 0 c17 0 46 -7 65 -16z m-1329 -318 c92 -30 262 -85 378 -121 202 -65
208 -68 182 -81 -25 -14 -51 -7 -407 107 -326 105 -377 124 -362 135 9 8 22
14 29 14 7 0 88 -24 180 -54z m1658 40 c18 -13 18 -14 -6 -21 -13 -4 -185 -59
-381 -121 -335 -108 -359 -114 -385 -101 -26 14 -24 15 103 55 71 23 239 77
374 121 135 44 252 80 261 80 8 1 24 -5 34 -13z m-1560 -171 c204 -64 374
-121 380 -126 6 -6 4 -15 -6 -24 -13 -13 -60 0 -414 116 -373 122 -398 132
-375 145 14 7 30 12 35 10 6 -1 177 -56 380 -121z m1668 111 c16 -12 -27 -29
-378 -146 -325 -108 -398 -130 -411 -119 -8 6 -13 17 -11 22 3 9 743 254 772
256 6 0 18 -6 28 -13z m57 -390 l0 -324 -29 -12 c-16 -6 -42 -25 -57 -41 l-29
-30 -3 -160 -3 -159 30 -30 c20 -20 39 -30 60 -30 24 0 31 -4 31 -20 0 -16
-47 -34 -337 -129 -186 -61 -371 -121 -410 -135 l-73 -25 0 578 0 577 398 131
c218 72 403 132 410 132 9 1 12 -70 12 -323z m-1785 15 l270 -89 3 -396 c1
-218 -1 -396 -5 -396 -5 0 -129 40 -278 90 l-270 89 -3 396 c-1 217 1 395 5
395 5 0 130 -40 278 -89z m905 -541 l0 -580 -220 0 -220 0 0 580 0 580 220 0
220 0 0 -580z m-1328 148 c37 -11 89 -59 71 -65 -5 -2 -30 3 -57 11 -46 14
-48 14 -56 -7 -10 -27 -8 -29 63 -51 49 -15 57 -20 57 -42 0 -28 3 -28 -50 -9
-57 20 -67 19 -72 -9 -5 -23 0 -26 59 -42 55 -15 63 -20 63 -40 0 -28 -2 -28
-64 -10 -46 14 -48 14 -55 -7 -5 -12 -7 -25 -5 -28 2 -3 28 -12 59 -19 53 -13
69 -25 43 -35 -21 -8 -152 33 -165 52 -9 11 -13 58 -13 143 0 170 15 190 122
158z m2322 -10 c13 -17 16 -51 16 -148 0 -119 -1 -128 -22 -147 -30 -26 -146
-59 -161 -44 -7 7 -2 13 17 21 15 5 31 10 36 10 5 0 20 4 34 9 19 8 23 15 19
32 -6 22 -10 22 -95 3 -25 -6 -28 -4 -28 20 0 14 5 26 11 26 6 0 35 7 65 16
49 14 54 18 48 37 -9 31 -6 30 -65 13 -29 -9 -54 -16 -56 -16 -2 0 -3 11 -3
25 0 21 8 27 63 43 51 15 61 22 59 38 -6 28 -8 29 -63 15 -27 -7 -52 -11 -55
-8 -10 9 35 52 67 63 55 20 96 17 113 -8z"/>
<path d="M690 1780 c0 -25 4 -30 25 -30 21 0 25 5 25 30 0 25 -4 30 -25 30
-21 0 -25 -5 -25 -30z"/>
<path d="M1820 1780 c0 -25 4 -30 25 -30 21 0 25 5 25 30 0 25 -4 30 -25 30
-21 0 -25 -5 -25 -30z"/>
<path d="M1953 1234 c-241 -82 -252 -86 -244 -107 5 -12 15 -22 22 -21 10 1
385 121 496 159 14 5 3 47 -13 51 -5 1 -122 -36 -261 -82z"/>
<path d="M1953 1064 c-241 -82 -252 -86 -244 -107 5 -12 15 -22 22 -21 10 1
385 121 496 159 14 5 3 47 -13 51 -5 1 -122 -36 -261 -82z"/>
<path d="M1864 864 c-144 -49 -161 -57 -157 -75 3 -10 9 -21 13 -24 7 -4 328
99 337 109 9 8 -8 46 -20 45 -7 0 -85 -25 -173 -55z"/>
<path d="M532 1104 c-134 -69 -183 -363 -91 -551 39 -82 85 -118 149 -118 63
0 110 36 149 118 127 259 -19 647 -207 551z"/>
<path d="M1134 1097 c-2 -7 -3 -74 -2 -148 l3 -134 145 0 145 0 0 145 0 145
-143 3 c-111 2 -144 0 -148 -11z"/>
<path d="M1180 450 l0 -280 25 0 25 0 0 280 0 280 -25 0 -25 0 0 -280z"/>
<path d="M1330 450 l0 -280 25 0 25 0 0 280 0 280 -25 0 -25 0 0 -280z"/>
<path d="M1010 1845 c0 -25 1 -25 80 -25 79 0 80 0 80 25 0 25 -1 25 -80 25
-79 0 -80 0 -80 -25z"/>
<path d="M1390 1845 c0 -25 1 -25 80 -25 79 0 80 0 80 25 0 25 -1 25 -80 25
-79 0 -80 0 -80 -25z"/>
<path d="M1140 1695 c0 -52 1 -55 25 -55 24 0 25 3 25 55 0 52 -1 55 -25 55
-24 0 -25 -3 -25 -55z"/>
<path d="M1370 1695 c0 -52 1 -55 25 -55 24 0 25 3 25 55 0 52 -1 55 -25 55
-24 0 -25 -3 -25 -55z"/>
</g>
</svg>
